<?xml version="1.0" standalone="no"?>
<!DOCTYPE svg PUBLIC "-//W3C//DTD SVG 20010904//EN"
 "http://www.w3.org/TR/2001/REC-SVG-20010904/DTD/svg10.dtd">
<svg version="1.0" xmlns="http://www.w3.org/2000/svg"
 width="474.000000pt" height="474.000000pt" viewBox="0 0 474.000000 474.000000"
 preserveAspectRatio="xMidYMid meet">

<g transform="translate(0.000000,474.000000) scale(0.100000,-0.100000)"
fill="#000000" stroke="none">
<path d="M1725 4096 c-108 -34 -158 -77 -247 -209 -73 -109 -143 -185 -208
-227 l-47 -30 -449 0 c-338 0 -463 -4 -506 -14 -75 -17 -146 -71 -184 -138
l-29 -53 0 -1320 0 -1320 23 -43 c33 -61 89 -98 170 -111 48 -9 655 -11 2167
-9 l2100 3 45 21 c53 25 103 78 121 131 12 31 14 269 14 1333 l0 1295 -24 52
c-27 61 -84 116 -150 147 -44 20 -62 21 -537 26 l-490 5 -53 40 c-58 44 -136
141 -171 214 -54 109 -140 175 -271 206 -87 20 -1210 21 -1274 1z m900 -921
c214 -59 368 -146 509 -288 189 -189 292 -425 303 -693 6 -140 -7 -251 -44
-369 -152 -484 -624 -797 -1124 -746 -133 14 -229 41 -346 96 -124 59 -193
105 -290 198 -287 275 -397 683 -287 1064 111 382 421 665 820 748 94 19 375
13 459 -10z m1096 10 c39 -21 69 -71 69 -117 0 -47 -38 -94 -90 -109 -51 -15
-87 -5 -127 37 -27 29 -33 43 -33 81 0 39 5 50 39 84 44 44 88 51 142 24z"/>
<path d="M2242 2939 c-159 -28 -301 -100 -420 -213 -128 -121 -213 -277 -242
-442 -18 -102 -8 -281 20 -369 86 -269 278 -461 545 -545 100 -31 273 -38 385
-16 166 34 300 108 421 233 286 295 304 747 43 1068 -100 122 -270 231 -424
269 -79 20 -256 28 -328 15z"/>
<path d="M440 3868 l0 -148 340 0 340 0 0 145 0 144 -340 3 -340 3 0 -147z"/>
</g>
</svg>
